<svg width="36" height="36" viewBox="0 0 36 36" fill="none" xmlns="http://www.w3.org/2000/svg">
<mask id="mask0_2092_1011" style="mask-type:luminance" maskUnits="userSpaceOnUse" x="0" y="0" width="36" height="36">
<path d="M0.5 17.8C0.5 27.6 8.4998 35.5 18.2998 35.5C27.9998 35.5 36 27.6 36 17.8C36 7.99999 27.9998 0 18.2998 0C8.4998 0 0.5 7.99999 0.5 17.8Z" fill="white"/>
</mask>
<g mask="url(#mask0_2092_1011)">
<path d="M33.2716 29.2115L-1.67529 -5.73535L-0.489646 -6.921L34.4572 28.0259L33.2716 29.2115Z" fill="#4CC8BC"/>
<path d="M33.2716 31.7096L-1.67529 -3.2373L-0.489646 -4.42295L34.4572 30.5239L33.2716 31.7096Z" fill="#4CC8BC"/>
<path d="M33.2716 34.2057L-1.67529 -0.741211L-0.489646 -1.92686L34.4572 33.02L33.2716 34.2057Z" fill="#4CC8BC"/>
<path d="M33.2711 36.7037L-1.67578 1.75684L-0.489789 0.570844L34.4571 35.5177L33.2711 36.7037Z" fill="#4CC8BC"/>
<path d="M33.2711 39.1998L-1.67578 4.25293L-0.489789 3.06694L34.4571 38.0138L33.2711 39.1998Z" fill="#4CC8BC"/>
<path d="M34.4571 -3.24962L-0.489746 31.6973L-1.67574 30.5113L33.2711 -4.43561L34.4571 -3.24962Z" fill="#4CC8BC"/>
<path d="M34.8832 -1.16201L-0.0620117 33.7832L-1.24995 32.5953L33.6953 -2.34995L34.8832 -1.16201Z" fill="#4CC8BC"/>
<path d="M34.4571 1.74257L-0.489746 36.6895L-1.67539 35.5038L33.2715 0.556919L34.4571 1.74257Z" fill="#4CC8BC"/>
<path d="M34.4571 4.23964L-0.489746 39.1865L-1.67539 38.0009L33.2715 3.05399L34.4571 4.23964Z" fill="#4CC8BC"/>
<path d="M34.4571 6.73671L-0.489746 41.6836L-1.67574 40.4976L33.2711 5.55071L34.4571 6.73671Z" fill="#4CC8BC"/>
</g>
</svg>
