<svg width="54" height="54" viewBox="0 0 54 54" fill="none" xmlns="http://www.w3.org/2000/svg">
<g clip-path="url(#clip0_2229_3200)">
<path d="M30.3631 16H32.6368C33.3893 16 34 16.8523 34 17.8855V36.1145C34 37.1554 33.3838 38 32.6368 38H30.3631C29.6107 38 29 37.1477 29 36.1145V17.8855C29 16.8448 29.6107 16 30.3631 16Z" fill="#D5D5D5" fill-opacity="0.3"/>
<path d="M32.6367 16.5H30.3633C30.1879 16.5 29.9839 16.5978 29.8047 16.8457C29.6261 17.0929 29.5 17.4591 29.5 17.8857V36.1143C29.5 36.5366 29.6254 36.9036 29.8047 37.1523C29.9849 37.4023 30.1895 37.5 30.3633 37.5H32.6367C32.8087 37.5 33.0129 37.4031 33.1934 37.1543C33.3729 36.9067 33.5 36.5401 33.5 36.1143V17.8857C33.5 17.4634 33.3746 17.0964 33.1953 16.8477C33.0151 16.5977 32.8105 16.5 32.6367 16.5Z" stroke="#D5D5D5" stroke-opacity="0.3"/>
<path d="M21.3632 16H23.6368C24.3894 16 25 16.8523 25 17.8855V36.1145C25 37.1554 24.3838 38 23.6368 38H21.3632C20.6107 38 20 37.1477 20 36.1145V17.8855C20 16.8448 20.6161 16 21.3632 16Z" fill="#D5D5D5" fill-opacity="0.3"/>
<path d="M23.6367 16.5H21.3633C21.1914 16.5 20.9871 16.5969 20.8066 16.8457C20.6271 17.0933 20.5 17.46 20.5 17.8857V36.1143C20.5 36.5366 20.6254 36.9036 20.8047 37.1523C20.9849 37.4023 21.1895 37.5 21.3633 37.5H23.6367C23.8087 37.5 24.0129 37.4031 24.1934 37.1543C24.3729 36.9067 24.5 36.5401 24.5 36.1143V17.8857C24.5 17.4634 24.3746 17.0964 24.1953 16.8477C24.0152 16.5978 23.8105 16.5 23.6367 16.5Z" stroke="#D5D5D5" stroke-opacity="0.3"/>
<path d="M26.977 5C40.2326 5 49 13.7674 49 27.023C49 40.2787 40.2326 49 26.977 49C13.7213 49 4.5 40.2787 4.5 27.023C4.5 13.7674 13.7212 5 26.977 5ZM26.977 44.1418C36.431 44.1418 44.0957 36.4694 44.0957 27.023C44.0957 17.5766 36.4234 9.90427 26.977 9.90427C17.5306 9.90427 9.85819 17.5766 9.85819 27.023C9.85819 36.4694 17.5152 44.1418 26.977 44.1418Z" fill="#D5D5D5" fill-opacity="0.3"/>
<path d="M26.9766 5.5C20.4606 5.50009 14.9727 7.65343 11.1162 11.3994C7.26118 15.144 5 20.5156 5 27.0234C5.00009 33.5308 7.26083 38.8901 11.1152 42.623C14.9714 46.3576 20.4599 48.4999 26.9766 48.5C33.4925 48.5 38.8649 46.3582 42.6064 42.6279C46.3476 38.8979 48.4999 33.5382 48.5 27.0234C48.5 20.5082 46.3473 15.1363 42.6055 11.3945C38.8637 7.65275 33.4918 5.5 26.9766 5.5ZM26.9766 9.4043C36.6991 9.4043 44.5957 17.3009 44.5957 27.0234C44.5955 36.7457 36.7067 44.6416 26.9766 44.6416C17.2387 44.6414 9.35861 36.7454 9.3584 27.0234C9.3584 17.301 17.2542 9.40451 26.9766 9.4043Z" stroke="#D5D5D5" stroke-opacity="0.3"/>
</g>
<defs>
<clipPath id="clip0_2229_3200">
<rect width="54" height="54" fill="white"/>
</clipPath>
</defs>
</svg>
