<?xml version="1.0" encoding="UTF-8" standalone="no"?>
<svg
   width="24"
   height="25"
   viewBox="0 0 24 25"
   fill="none"
   version="1.1"
   id="svg1"
   sodipodi:docname="arrow-left.svg"
   inkscape:version="1.3 (0e150ed6c4, 2023-07-21)"
   xmlns:inkscape="http://www.inkscape.org/namespaces/inkscape"
   xmlns:sodipodi="http://sodipodi.sourceforge.net/DTD/sodipodi-0.dtd"
   xmlns="http://www.w3.org/2000/svg"
   xmlns:svg="http://www.w3.org/2000/svg">
  <defs
     id="defs1" />
  <sodipodi:namedview
     id="namedview1"
     pagecolor="#ffffff"
     bordercolor="#000000"
     borderopacity="0.25"
     inkscape:showpageshadow="2"
     inkscape:pageopacity="0.0"
     inkscape:pagecheckerboard="0"
     inkscape:deskcolor="#d1d1d1"
     inkscape:zoom="77.64"
     inkscape:cx="11.997682"
     inkscape:cy="12.5"
     inkscape:window-width="3840"
     inkscape:window-height="2137"
     inkscape:window-x="-8"
     inkscape:window-y="-8"
     inkscape:window-maximized="1"
     inkscape:current-layer="svg1" />
  <path
     style="color:#000000;fill:#f7ea76;stroke-linecap:round;stroke-linejoin:round;-inkscape-stroke:none"
     d="M 11,5.5 A 1,1 0 0 0 10.292969,5.7929687 L 4.2929687,11.792969 A 1,1 0 0 0 4,12.5 1,1 0 0 0 4.2929687,13.207031 l 6.0000003,6 a 1,1 0 0 0 1.414062,0 1,1 0 0 0 0,-1.414062 L 7.4140625,13.5 H 19 a 1,1 0 0 0 1,-1 1,1 0 0 0 -1,-1 H 7.4140625 L 11.707031,7.2070312 a 1,1 0 0 0 0,-1.4140625 A 1,1 0 0 0 11,5.5 Z"
     id="path1" />
</svg>
