<?xml version="1.0" encoding="UTF-8" standalone="no"?>
<svg
   width="25"
   height="25"
   viewBox="0 0 25 25"
   fill="none"
   version="1.1"
   id="svg1"
   sodipodi:docname="cart.svg"
   inkscape:version="1.3 (0e150ed6c4, 2023-07-21)"
   xmlns:inkscape="http://www.inkscape.org/namespaces/inkscape"
   xmlns:sodipodi="http://sodipodi.sourceforge.net/DTD/sodipodi-0.dtd"
   xmlns="http://www.w3.org/2000/svg"
   xmlns:svg="http://www.w3.org/2000/svg">
  <defs
     id="defs1" />
  <sodipodi:namedview
     id="namedview1"
     pagecolor="#ffffff"
     bordercolor="#000000"
     borderopacity="0.25"
     inkscape:showpageshadow="2"
     inkscape:pageopacity="0.0"
     inkscape:pagecheckerboard="0"
     inkscape:deskcolor="#d1d1d1"
     inkscape:zoom="77.64"
     inkscape:cx="12.5"
     inkscape:cy="12.5"
     inkscape:window-width="3840"
     inkscape:window-height="2137"
     inkscape:window-x="-8"
     inkscape:window-y="-8"
     inkscape:window-maximized="1"
     inkscape:current-layer="svg1" />
  <path
     style="color:#000000;fill:#ffffff;stroke-linecap:round;stroke-linejoin:round;-inkscape-stroke:none"
     d="m 3.5,2.75 a 1,1 0 0 0 -1,1 1,1 0 0 0 1,1 h 0.7070312 c 0.4612596,0 0.5640895,0.034449 0.484375,0 -0.049817,-0.069929 0.00513,0.024565 0.1015625,0.4746094 L 7.2558594,16.710937 c 0.038302,0.178756 0.1311809,0.326929 0.171875,0.486329 C 6.3600076,17.658745 5.5,18.521566 5.5,19.75 c 0,1.645023 1.3550102,3 3,3 1.64499,0 3,-1.354977 3,-3 0,-0.38836 -0.278987,-0.657984 -0.416016,-1 h 3.832032 C 14.778988,19.092015 14.5,19.361644 14.5,19.75 c 0,1.645005 1.354995,3 3,3 1.645005,0 3,-1.354995 3,-3 0,-1.36967 -1.02702,-2.352252 -2.291016,-2.705078 A 1,1 0 0 0 17.5,16.75 H 9.7949219 c -0.4610696,0 -0.567585,-0.0351 -0.4863281,0 0.052382,0.07351 -0.0032,-0.01817 -0.097656,-0.458984 L 9.0957031,15.75 h 8.8964839 c 0.429,0 0.763883,0.02972 1.201172,-0.148437 a 1.0001,1.0001 0 0 0 0.002,0 c 0.321146,-0.130904 0.601602,-0.340915 0.816407,-0.613282 0.291946,-0.370408 0.354921,-0.70228 0.474609,-1.117187 L 21.871094,9.0703125 C 22.071226,8.3763557 22.29352,7.9084127 22.095703,7.2070312 21.960347,6.7264278 21.649123,6.3142515 21.224609,6.0507812 20.604717,5.6661049 20.094846,5.75 19.373047,5.75 H 6.953125 L 6.75,4.8046875 C 6.6531511,4.3526927 6.6101492,3.9966923 6.3203125,3.5898438 6.107493,3.2911042 5.818656,3.058515 5.484375,2.9140625 5.024941,2.7155132 4.6682908,2.75 4.2070312,2.75 Z m 3.8808594,5 H 19.373047 c 0.721799,0 0.932168,0.083957 0.796875,0 -0.04302,-0.152522 -0.02083,0.072583 -0.220703,0.765625 l -1.382813,4.800781 c -0.119511,0.414293 -0.176299,0.496202 -0.126953,0.433594 0.07549,-0.03075 -0.01827,0 -0.447266,0 H 8.6660156 Z M 8.5,18.75 c 0.564148,0 1,0.435825 1,1 0,0.564175 -0.435852,1 -1,1 -0.564148,0 -1,-0.435825 -1,-1 0,-0.564175 0.435852,-1 1,-1 z m 9,0 c 0.564193,0 1,0.435807 1,1 0,0.564193 -0.435807,1 -1,1 -0.564193,0 -1,-0.435807 -1,-1 0,-0.564193 0.435807,-1 1,-1 z"
     id="path1" />
</svg>
