<?xml version="1.0" encoding="UTF-8" standalone="no"?>
<svg
   width="24"
   height="24"
   viewBox="0 0 24 24"
   fill="none"
   version="1.1"
   id="svg1"
   sodipodi:docname="delete.svg"
   inkscape:version="1.3 (0e150ed6c4, 2023-07-21)"
   xmlns:inkscape="http://www.inkscape.org/namespaces/inkscape"
   xmlns:sodipodi="http://sodipodi.sourceforge.net/DTD/sodipodi-0.dtd"
   xmlns="http://www.w3.org/2000/svg"
   xmlns:svg="http://www.w3.org/2000/svg">
  <defs
     id="defs1" />
  <sodipodi:namedview
     id="namedview1"
     pagecolor="#ffffff"
     bordercolor="#000000"
     borderopacity="0.25"
     inkscape:showpageshadow="2"
     inkscape:pageopacity="0.0"
     inkscape:pagecheckerboard="0"
     inkscape:deskcolor="#d1d1d1"
     inkscape:zoom="80.875"
     inkscape:cx="12"
     inkscape:cy="12"
     inkscape:window-width="3840"
     inkscape:window-height="2137"
     inkscape:window-x="-8"
     inkscape:window-y="-8"
     inkscape:window-maximized="1"
     inkscape:current-layer="svg1" />
  <path
     style="color:#000000;fill:#ffffff;stroke-linecap:round;stroke-linejoin:round;-inkscape-stroke:none"
     d="M 12,2 C 10.39763,2 8.9275612,2.9085756 8.2109375,4.3417969 L 7.3828125,6 H 6 4 A 1,1 0 0 0 3,7 1,1 0 0 0 4,8 h 1 v 7 c 0,1.863798 -0.038003,2.90295 0.3808594,3.914062 0.5073256,1.224765 1.4802992,2.197732 2.7050781,2.705079 C 9.0970783,22.037996 10.136202,22 12,22 c 1.863798,0 2.902928,0.03798 3.914063,-0.380859 1.224755,-0.507347 2.197731,-1.480323 2.705078,-2.705079 C 19.038034,17.90294 19,16.863798 19,15 V 8 h 1 A 1,1 0 0 0 21,7 1,1 0 0 0 20,6 H 18 16.617187 L 15.789063,4.3417969 C 15.072499,2.9085131 13.60237,2 12,2 Z m 0,2 c 0.849027,0 1.620365,0.4769741 2,1.2363281 L 14.382813,6 H 9.6171875 L 10,5.2363281 C 10.379715,4.4769116 11.150973,4 12,4 Z M 7,8 h 10 v 7 c 0,1.863798 -0.03841,2.689562 -0.228516,3.148437 -0.304652,0.735443 -0.887604,1.318395 -1.623046,1.623047 C 14.689373,19.961642 13.863798,20 12,20 10.136202,20 9.3105802,19.961628 8.8515625,19.771484 8.1161034,19.466831 7.5331492,18.883871 7.2285156,18.148437 7.0384181,17.689551 7,16.863798 7,15 Z"
     id="path1" />
</svg>
