<?xml version="1.0" encoding="UTF-8" standalone="no"?>
<svg
   width="24"
   height="25"
   viewBox="0 0 24 25"
   fill="none"
   version="1.1"
   id="svg1"
   sodipodi:docname="edit.svg"
   inkscape:version="1.3 (0e150ed6c4, 2023-07-21)"
   xmlns:inkscape="http://www.inkscape.org/namespaces/inkscape"
   xmlns:sodipodi="http://sodipodi.sourceforge.net/DTD/sodipodi-0.dtd"
   xmlns="http://www.w3.org/2000/svg"
   xmlns:svg="http://www.w3.org/2000/svg">
  <defs
     id="defs1" />
  <sodipodi:namedview
     id="namedview1"
     pagecolor="#ffffff"
     bordercolor="#000000"
     borderopacity="0.25"
     inkscape:showpageshadow="2"
     inkscape:pageopacity="0.0"
     inkscape:pagecheckerboard="0"
     inkscape:deskcolor="#d1d1d1"
     inkscape:zoom="77.64"
     inkscape:cx="11.997682"
     inkscape:cy="12.5"
     inkscape:window-width="3840"
     inkscape:window-height="2137"
     inkscape:window-x="-8"
     inkscape:window-y="-8"
     inkscape:window-maximized="1"
     inkscape:current-layer="svg1" />
  <path
     style="color:#000000;fill:#ffffff;stroke-linecap:round;stroke-linejoin:round;-inkscape-stroke:none"
     d="m 18.292969,2.015625 -3,3 -6.0000002,6 A 1.0001,1.0001 0 0 0 9,11.722656 v 3 a 1.0001,1.0001 0 0 0 1,1 h 3 a 1.0001,1.0001 0 0 0 0.707031,-0.292968 l 6,-6.0000005 3,-3 a 1.0001,1.0001 0 0 0 0,-1.4140625 l -3,-3 a 1.0001,1.0001 0 0 0 -1.414062,0 z M 7.2011719,3.7226563 c -1.1201089,0 -1.8199026,-0.052192 -2.5625,0.3261718 -0.5642396,0.2874949 -1.025011,0.7482575 -1.3125,1.3125 C 2.9477973,6.1039309 3,6.8017761 3,7.921875 v 9.601562 c 0,1.120099 -0.052009,1.818377 0.3261719,2.560547 0.2873324,0.564056 0.7477653,1.024678 1.3125,1.3125 0.7421232,0.378181 1.4406748,0.326172 2.5585937,0.326172 h 9.6054684 c 1.117899,0 1.816915,0.05178 2.558594,-0.326172 0.564394,-0.287671 1.024615,-0.747243 1.3125,-1.3125 C 21.051811,19.342249 21,18.64339 21,17.525391 v -2.802735 a 1,1 0 0 0 -1,-1 1,1 0 0 0 -1,1 v 2.802735 c 0,1.117999 -0.05176,1.537326 -0.109375,1.65039 -0.09551,0.187542 -0.249295,0.341572 -0.4375,0.4375 -0.11312,0.05765 -0.532492,0.109375 -1.650391,0.109375 H 7.1972656 c -1.1179189,0 -1.5396678,-0.05196 -1.6523437,-0.109375 C 5.3569973,19.517504 5.2055222,19.364525 5.109375,19.175781 5.0515764,19.062353 5,18.643536 5,17.523437 V 7.921875 C 5,6.8017761 5.05177,6.3806345 5.109375,6.2675781 5.2053656,6.0791814 5.3565022,5.928036 5.5449219,5.8320312 5.6579636,5.774435 6.081063,5.7226562 7.2011719,5.7226562 H 10 a 1,1 0 0 0 1,-1 1,1 0 0 0 -1,-0.9999999 z M 19,4.1367187 20.585937,5.7226562 19,7.3085937 17.414062,5.7226562 Z m -3,3 1.585937,1.5859376 -4.999999,4.9999997 H 11 v -1.585937 z"
     id="path1" />
</svg>
