<?xml version="1.0" encoding="UTF-8" standalone="no"?>
<svg
   width="16"
   height="17"
   viewBox="0 0 16 17"
   fill="none"
   version="1.1"
   id="svg1"
   sodipodi:docname="heart.svg"
   inkscape:version="1.3 (0e150ed6c4, 2023-07-21)"
   xmlns:inkscape="http://www.inkscape.org/namespaces/inkscape"
   xmlns:sodipodi="http://sodipodi.sourceforge.net/DTD/sodipodi-0.dtd"
   xmlns="http://www.w3.org/2000/svg"
   xmlns:svg="http://www.w3.org/2000/svg">
  <defs
     id="defs1" />
  <sodipodi:namedview
     id="namedview1"
     pagecolor="#ffffff"
     bordercolor="#000000"
     borderopacity="0.25"
     inkscape:showpageshadow="2"
     inkscape:pageopacity="0.0"
     inkscape:pagecheckerboard="0"
     inkscape:deskcolor="#d1d1d1"
     inkscape:zoom="114.17647"
     inkscape:cx="8.0007728"
     inkscape:cy="8.5"
     inkscape:window-width="3840"
     inkscape:window-height="2137"
     inkscape:window-x="-8"
     inkscape:window-y="-8"
     inkscape:window-maximized="1"
     inkscape:current-layer="svg1" />
  <g
     id="path1">
    <path
       style="color:#000000;fill:#f7ea76;stroke-linecap:round;stroke-linejoin:round;-inkscape-stroke:none"
       d="M 8,5.85187 C 6.66667,2.72225 2,3.05558 2,7.0556 c 0,4 6,7.3335 6,7.3335 0,0 6,-3.3335 6,-7.3335 C 14,3.05558 9.33333,2.72225 8,5.85187 Z"
       id="path2" />
    <path
       style="color:#000000;fill:#f7ea76;stroke-linecap:round;stroke-linejoin:round;-inkscape-stroke:none"
       d="M 4.3574219,2.7910156 C 2.5803713,3.0470874 1,4.6657927 1,7.0546875 1,9.554685 2.7431611,11.554858 4.3359375,12.970703 c 1.5927764,1.415846 3.1777344,2.292969 3.1777344,2.292969 a 1.0001,1.0001 0 0 0 0.9726562,0 c 0,0 1.5849579,-0.877123 3.1777349,-2.292969 C 13.256839,11.554858 15,9.554685 15,7.0546875 15,4.6657927 13.419629,3.0470874 11.642578,2.7910156 10.351097,2.6049141 8.9801028,3.078177 8,4.0957031 7.0198972,3.078177 5.6489028,2.6049141 4.3574219,2.7910156 Z m 0.2851562,1.9785156 c 0.8896142,-0.1281928 1.94074,0.308604 2.4375,1.4746094 a 1.0001,1.0001 0 0 0 1.8398438,0 C 9.4166819,5.0781352 10.467808,4.6413384 11.357422,4.7695312 12.247036,4.8977241 13,5.4435663 13,7.0546875 13,8.554686 11.743158,10.223708 10.335938,11.474609 9.1711732,12.509988 8.3684036,12.947039 8,13.164063 7.6315964,12.947039 6.8288268,12.509988 5.6640625,11.474609 4.2568419,10.223708 3,8.554686 3,7.0546875 3,5.4435663 3.7529639,4.8977241 4.6425781,4.7695312 Z"
       id="path3" />
  </g>
</svg>
