<svg width="35" height="35" viewBox="0 0 35 35" fill="none" xmlns="http://www.w3.org/2000/svg">
<path d="M28.36 9.84595C28.101 9.18095 27.792 8.70595 27.295 8.20695C26.796 7.70795 26.32 7.39895 25.654 7.14195C25.153 6.94695 24.399 6.71395 23.009 6.65095C21.506 6.58295 21.056 6.56695 17.25 6.56695C13.445 6.56695 12.995 6.58295 11.491 6.65095C10.102 6.71395 9.349 6.94695 8.846 7.14195C8.18 7.39895 7.707 7.70795 7.208 8.20695C6.709 8.70595 6.4 9.18095 6.141 9.84595C5.945 10.348 5.714 11.103 5.652 12.492C5.582 13.995 5.567 14.446 5.567 18.25C5.567 22.055 5.582 22.507 5.652 24.009C5.714 25.398 5.945 26.153 6.141 26.656C6.4 27.32 6.709 27.795 7.208 28.294C7.707 28.792 8.18 29.102 8.846 29.359C9.349 29.555 10.102 29.787 11.491 29.85C12.995 29.919 13.445 29.933 17.25 29.933C21.056 29.933 21.507 29.919 23.009 29.85C24.399 29.787 25.153 29.555 25.654 29.359C26.32 29.102 26.796 28.792 27.295 28.294C27.792 27.795 28.101 27.32 28.36 26.656C28.555 26.153 28.787 25.398 28.851 24.009C28.919 22.507 28.934 22.055 28.934 18.25C28.934 14.446 28.919 13.995 28.851 12.492C28.787 11.103 28.555 10.348 28.36 9.84595ZM17.25 25.568C13.21 25.568 9.932 22.292 9.932 18.25C9.932 14.209 13.21 10.933 17.25 10.933C21.291 10.933 24.568 14.209 24.568 18.25C24.568 22.292 21.291 25.568 17.25 25.568ZM24.858 12.353C23.914 12.353 23.148 11.588 23.148 10.644C23.148 9.69995 23.914 8.93295 24.858 8.93295C25.802 8.93295 26.568 9.69995 26.568 10.644C26.568 11.588 25.802 12.353 24.858 12.353ZM17.25 13.5C14.628 13.5 12.501 15.627 12.501 18.25C12.501 20.874 14.628 23.001 17.25 23.001C19.875 23.001 22.002 20.874 22.002 18.25C22.002 15.627 19.875 13.5 17.25 13.5ZM31.415 24.127C31.346 25.643 31.105 26.679 30.754 27.585C30.388 28.522 29.902 29.316 29.11 30.11C28.317 30.901 27.522 31.389 26.586 31.753C25.678 32.105 24.643 32.346 23.125 32.416C21.606 32.484 21.121 32.502 17.25 32.502C13.38 32.502 12.895 32.484 11.375 32.416C9.859 32.346 8.822 32.105 7.917 31.753C6.979 31.389 6.184 30.901 5.392 30.11C4.599 29.316 4.113 28.522 3.749 27.585C3.396 26.679 3.156 25.643 3.086 24.127C3.016 22.605 3 22.12 3 18.25C3 14.381 3.016 13.895 3.086 12.375C3.156 10.858 3.396 9.82195 3.749 8.91595C4.113 7.97795 4.599 7.18295 5.392 6.39195C6.184 5.59895 6.979 5.11195 7.917 4.74795C8.822 4.39495 9.859 4.15495 11.375 4.08495C12.895 4.01495 13.38 3.99995 17.25 3.99995C21.121 3.99995 21.606 4.01495 23.125 4.08495C24.643 4.15495 25.678 4.39495 26.586 4.74795C27.522 5.11195 28.317 5.59895 29.11 6.39195C29.902 7.18295 30.388 7.97795 30.754 8.91595C31.105 9.82195 31.346 10.858 31.415 12.375C31.485 13.895 31.501 14.381 31.501 18.25C31.501 22.12 31.485 22.605 31.415 24.127Z" fill="#4CC8BC"/>
</svg>
