<svg width="35" height="35" viewBox="0 0 35 35" fill="none" xmlns="http://www.w3.org/2000/svg">
<path d="M32.7734 24.9702C32.5524 24.3672 32.1294 24.0452 31.6484 23.7772C31.5584 23.7252 31.4764 23.6812 31.4044 23.6502C31.2624 23.5752 31.1134 23.5042 30.9694 23.4272C29.4704 22.6332 28.3014 21.6322 27.4894 20.4442C27.2584 20.1102 27.0604 19.7542 26.8924 19.3852C26.8224 19.1872 26.8264 19.0742 26.8754 18.9712C26.9254 18.8922 26.9904 18.8242 27.0664 18.7722C27.3244 18.6022 27.5904 18.4292 27.7704 18.3132C28.0924 18.1052 28.3464 17.9402 28.5084 17.8232C29.1254 17.3932 29.5554 16.9372 29.8234 16.4252C30.2034 15.7112 30.2534 14.8682 29.9604 14.1142C29.5534 13.0412 28.5424 12.3762 27.3144 12.3762C27.0564 12.3762 26.7964 12.4022 26.5444 12.4582C26.4764 12.4712 26.4084 12.4872 26.3424 12.5052C26.3544 11.7722 26.3384 10.9962 26.2724 10.2352C26.0414 7.5572 25.1044 6.1532 24.1254 5.0342C23.5004 4.3322 22.7614 3.7402 21.9434 3.2762C20.4594 2.4302 18.7774 2.0002 16.9434 2.0002C15.1094 2.0002 13.4364 2.4302 11.9484 3.2762C11.1284 3.7402 10.3904 4.3342 9.76339 5.0372C8.78639 6.1572 7.84739 7.5622 7.61639 10.2392C7.55139 11.0002 7.53639 11.7782 7.54639 12.5082C7.48039 12.4912 7.41239 12.4752 7.34439 12.4592C7.09139 12.4052 6.83439 12.3792 6.57639 12.3792C5.34739 12.3792 4.33339 13.0442 3.92739 14.1172C3.63339 14.8712 3.68439 15.7162 4.06239 16.4322C4.33139 16.9422 4.76139 17.4002 5.37639 17.8302C5.54039 17.9432 5.79439 18.1072 6.11539 18.3182C6.28939 18.4312 6.54139 18.5952 6.79039 18.7602C6.87739 18.8162 6.95239 18.8912 7.00839 18.9782C7.06039 19.0842 7.06239 19.1992 6.98339 19.4112C6.81839 19.7732 6.62339 20.1202 6.39739 20.4482C5.60339 21.6092 4.46739 22.5932 3.01739 23.3802C2.24939 23.7882 1.45139 24.0592 1.11339 24.9772C0.859389 25.6682 1.02639 26.4562 1.67239 27.1192C1.90939 27.3662 2.18439 27.5742 2.48539 27.7362C3.11639 28.0802 3.78439 28.3492 4.48039 28.5332C4.62239 28.5702 4.76039 28.6312 4.88139 28.7132C5.11739 28.9202 5.08439 29.2302 5.39739 29.6842C5.55639 29.9192 5.75639 30.1232 5.98739 30.2832C6.64639 30.7382 7.38639 30.7682 8.16939 30.7972C8.87839 30.8252 9.67939 30.8552 10.5974 31.1572C10.9754 31.2832 11.3704 31.5252 11.8274 31.8092C12.9254 32.4852 14.4274 33.4082 16.9414 33.4082C19.4564 33.4082 20.9694 32.4792 22.0734 31.8022C22.5284 31.5232 22.9204 31.2832 23.2894 31.1612C24.2054 30.8582 25.0084 30.8272 25.7174 30.8012C26.4994 30.7712 27.2404 30.7412 27.8974 30.2872C28.1744 30.0952 28.4024 29.8452 28.5694 29.5542C28.7954 29.1712 28.7894 28.9022 29.0014 28.7142C29.1164 28.6362 29.2434 28.5782 29.3794 28.5422C30.0834 28.3572 30.7624 28.0872 31.3994 27.7372C31.7214 27.5652 32.0104 27.3392 32.2544 27.0672L32.2634 27.0582C32.8694 26.4082 33.0224 25.6442 32.7734 24.9702ZM30.5394 26.1722C29.1754 26.9242 28.2704 26.8442 27.5654 27.2972C26.9654 27.6822 27.3204 28.5142 26.8854 28.8142C26.3514 29.1832 24.7714 28.7872 22.7304 29.4612C21.0484 30.0172 19.9734 31.6172 16.9454 31.6172C13.9184 31.6172 12.8704 30.0212 11.1584 29.4562C9.12239 28.7842 7.53939 29.1782 7.00239 28.8102C6.56939 28.5092 6.92239 27.6782 6.32339 27.2932C5.61839 26.8392 4.71239 26.9212 3.35139 26.1722C2.48239 25.6932 2.97539 25.3952 3.26439 25.2562C8.20139 22.8652 8.98839 19.1742 9.02439 18.9012C9.06639 18.5682 9.11339 18.3092 8.75039 17.9712C8.39639 17.6462 6.83039 16.6772 6.39739 16.3722C5.67739 15.8712 5.36239 15.3712 5.59639 14.7552C5.75739 14.3282 6.15539 14.1682 6.57339 14.1682C6.70539 14.1682 6.83639 14.1832 6.96439 14.2112C7.75339 14.3842 8.52039 14.7772 8.96239 14.8852C9.01439 14.8992 9.07039 14.9062 9.12439 14.9062C9.36139 14.9062 9.44439 14.7882 9.42739 14.5182C9.37739 13.6542 9.25439 11.9732 9.39039 10.4012C9.57739 8.2402 10.2734 7.1672 11.1024 6.2202C11.4994 5.7652 13.3684 3.7902 16.9404 3.7902C20.5134 3.7902 22.3854 5.7562 22.7824 6.2112C23.6114 7.1582 24.3104 8.2292 24.4944 10.3922C24.6304 11.9632 24.5134 13.6452 24.4584 14.5072C24.4394 14.7912 24.5244 14.8972 24.7614 14.8972C24.8154 14.8962 24.8704 14.8892 24.9224 14.8752C25.3674 14.7692 26.1334 14.3732 26.9224 14.2022C27.0494 14.1732 27.1814 14.1592 27.3144 14.1592C27.7314 14.1592 28.1274 14.3212 28.2914 14.7442C28.5244 15.3612 28.2094 15.8622 27.4894 16.3642C27.0564 16.6672 25.4904 17.6352 25.1374 17.9612C24.7734 18.2982 24.8204 18.5602 24.8624 18.8912C24.8984 19.1692 25.6844 22.8592 30.6234 25.2452C30.9134 25.3922 31.4064 25.6882 30.5394 26.1722Z" fill="#4CC8BC"/>
</svg>
