<svg width="35" height="35" viewBox="0 0 35 35" fill="none" xmlns="http://www.w3.org/2000/svg">
<path d="M27.785 7.70937C25.902 6.54526 24.5466 4.62293 24.1478 2.37363C24.1099 2.16035 24.0815 1.94238 24.0597 1.72628V1H18.3321V23.5597C18.3217 26.1895 16.1678 28.3185 13.5128 28.3185C12.7333 28.3185 11.9983 28.1353 11.3457 27.8083C9.77522 27.0219 8.69638 25.4068 8.69638 23.5427C8.69638 20.9054 10.8541 18.767 13.5128 18.767C14.0243 18.767 14.514 18.8459 14.9762 18.9906V14.4958V13.218C14.4969 13.1513 14.0139 13.1203 13.5318 13.1203C7.71414 13.1203 3 17.7946 3 23.5597C3 27.1741 4.8527 30.3573 7.66679 32.2327H7.66868C9.3433 33.3479 11.3608 34 13.5318 34C19.3456 34 24.0597 29.3248 24.0597 23.5597V12.0332C26.2989 13.6192 29.04 14.5521 32 14.5521V8.90354C30.5101 8.90542 29.0486 8.49201 27.785 7.70937Z" fill="#4CC8BC"/>
</svg>
