<?xml version="1.0" encoding="UTF-8" standalone="no"?>
<svg
   width="24"
   height="25"
   viewBox="0 0 24 25"
   fill="none"
   version="1.1"
   id="svg1"
   sodipodi:docname="warning.svg"
   inkscape:version="1.3 (0e150ed6c4, 2023-07-21)"
   xmlns:inkscape="http://www.inkscape.org/namespaces/inkscape"
   xmlns:sodipodi="http://sodipodi.sourceforge.net/DTD/sodipodi-0.dtd"
   xmlns="http://www.w3.org/2000/svg"
   xmlns:svg="http://www.w3.org/2000/svg">
  <defs
     id="defs1" />
  <sodipodi:namedview
     id="namedview1"
     pagecolor="#ffffff"
     bordercolor="#000000"
     borderopacity="0.25"
     inkscape:showpageshadow="2"
     inkscape:pageopacity="0.0"
     inkscape:pagecheckerboard="0"
     inkscape:deskcolor="#d1d1d1"
     inkscape:zoom="77.64"
     inkscape:cx="11.997682"
     inkscape:cy="12.5"
     inkscape:window-width="3840"
     inkscape:window-height="2137"
     inkscape:window-x="-8"
     inkscape:window-y="-8"
     inkscape:window-maximized="1"
     inkscape:current-layer="svg1" />
  <path
     style="color:#000000;fill:#2d73ac;stroke-linecap:round;stroke-linejoin:round;-inkscape-stroke:none"
     d="M 6.2011719,2.5 C 5.081063,2.5 4.3812748,2.4477884 3.6386719,2.8261719 3.0744161,3.11366 2.61366,3.5744161 2.3261719,4.1386719 1.9477884,4.8812748 2,5.581063 2,6.7011719 V 18.300781 c 0,1.120099 -0.052038,1.81832 0.3261719,2.560547 0.2873085,0.563859 0.7474774,1.024681 1.3125,1.3125 C 4.3807951,22.552009 5.0793467,22.5 6.1972656,22.5 H 17.802734 c 1.117899,0 1.816915,0.05178 2.558594,-0.326172 0.564306,-0.287477 1.024542,-0.747248 1.3125,-1.3125 C 22.051783,20.119649 22,19.420633 22,18.302734 V 6.6972656 C 22,5.5793467 22.052009,4.8807951 21.673828,4.1386719 21.38569,3.5730226 20.924867,3.1133177 20.361328,2.8261719 19.619382,2.4481054 18.92088,2.5 17.800781,2.5 Z m 0,2 H 17.800781 c 1.120099,0 1.538691,0.051462 1.652344,0.109375 0.18906,0.096334 0.342238,0.2485369 0.4375,0.4355469 C 19.948044,5.1575978 20,5.5793467 20,6.6972656 V 18.302734 c 0,1.117899 -0.05173,1.537271 -0.109375,1.650391 -0.09544,0.187347 -0.249207,0.341577 -0.4375,0.4375 C 19.340005,20.44827 18.920633,20.5 17.802734,20.5 H 6.1972656 C 5.0793467,20.5 4.6575978,20.448044 4.5449219,20.390625 4.3572853,20.295044 4.2055461,20.141866 4.109375,19.953125 4.051605,19.839753 4,19.42088 4,18.300781 V 6.7011719 C 4,5.581063 4.0517789,5.1579581 4.109375,5.0449219 4.2053665,4.8565184 4.3565184,4.7053665 4.5449219,4.609375 4.6579581,4.5517789 5.081063,4.5 6.2011719,4.5 Z M 12,7.9511719 a 1,1 0 0 0 -1,1 v 4.0000001 a 1,1 0 0 0 1,1 1,1 0 0 0 1,-1 V 8.9511719 a 1,1 0 0 0 -1,-1 z m -0.04883,7.0000001 a 1.0001,1.0001 0 0 0 -1,1 v 0.09766 a 1.0001,1.0001 0 0 0 0.994141,1 l 0.09961,0.002 a 1.0001,1.0001 0 0 0 1.003906,-1 v -0.09961 a 1.0001,1.0001 0 0 0 -0.09766,-0.09766 v 0.09766 L 12,16.902344 11.099609,16.001953 12.054688,15.050781 h 0.09375 a 1.0001,1.0001 0 0 0 -0.09961,-0.09961 z"
     id="path1"
     inkscape:label="path1" />
  <ellipse
     style="opacity:1;fill:#2d73ac;fill-opacity:1;stroke:none;stroke-opacity:1"
     id="path10"
     ry="1.0625966"
     rx="1.1012365"
     cy="16.003349"
     cx="11.997681"
     inkscape:label="path10" />
</svg>
